#!OML:ASF F:\VICON\USERDATA\INSTALL\SteveWalk\SteveWalk.ASF
:FULLY-SPECIFIED
:DEGREES
1
root -1.68918 16.3993 -45.0102 16.8906 0.250941 -0.41564
lowerback -14.8309 0.804142 1.55138
upperback -4.69061 0.794382 1.01451
thorax 3.35652 0.396966 0.324098
lowerneck -3.09979 -1.20145 1.51921
upperneck 7.55194 -1.35709 -4.57873
head 2.9191 -0.787306 -1.80012
rclavicle -6.21202e-016 -7.95139e-016
rhumerus -27.3841 -0.0109144 -86.8605
rradius 37.7254
rwrist -8.95931
rhand -15.5289 -34.7417
rfingers 7.12502
rthumb 10.6546 -64.4515
lclavicle -6.21202e-016 -7.95139e-016
lhumerus -43.1908 2.44913 86.6204
lradius 20.1331
lwrist -16.1076
lhand -8.2459 -17.1728
lfingers 7.12502
lthumb 17.6722 12.0441
rfemur -21.1492 -6.96383 23.9772
rtibia 33.7044
rfoot -28.2355 5.01663
rtoes -8.92297
lfemur -48.1293 4.67959 -22.7704
ltibia 49.1183
lfoot -10.5914 6.19299
ltoes -4.33582
2
root -1.67824 16.401 -44.7947 16.8761 0.0744385 -0.395211
lowerback -15.6507 0.808808 1.3958
upperback -4.05016 0.79092 1.05778
thorax 4.47012 0.39956 0.475303
lowerneck -3.60485 -1.05685 1.35493
upperneck 7.08301 -1.17696 -4.48115
head 2.86177 -0.700377 -1.73207
rclavicle -4.64659e-015 -3.57812e-015
rhumerus -25.5297 1.03262 -86.9051
rradius 38.8839
rwrist -9.82663
rhand -15.2719 -34.3642
rfingers 7.12502
rthumb 10.9025 -64.0611
lclavicle -4.64659e-015 -3.57812e-015
lhumerus -43.0883 3.86139 85.8769
lradius 19.2414
lwrist -17.6608
lhand -7.63326 -18.2413
lfingers 7.12502
lthumb 18.2617 10.9214
rfemur -19.8404 -7.56286 23.798
rtibia 32.7738
rfoot -28.424 5.84241
rtoes -8.85798
lfemur -48.1728 4.55266 -22.6776
ltibia 45.9083
lfoot -10.5046 6.36082
ltoes -3.94437
3
root -1.66833 16.4033 -44.585 16.8653 -0.19901 -0.506808
lowerback -15.7299 0.884197 1.32235
upperback -3.93895 0.893783 1.13534
thorax 4.62838 0.450042 0.62094
lowerneck -3.57418 -1.06253 1.29134
upperneck 6.81941 -1.18241 -4.57951
head 2.76699 -0.70525 -1.7484
rclavicle -4.93234e-015 -6.75868e-015
rhumerus -23.9568 2.18089 -86.9119
rradius 39.4574
rwrist -10.9929
rhand -15.0774 -34.1132
rfingers 7.12502
rthumb 11.0901 -63.8002
lclavicle -4.93234e-015 -6.75868e-015
lhumerus -43.7391 4.68751 85.5167
lradius 18.5178
lwrist -18.8861
lhand -7.48739 -17.9089
lfingers 7.12502
lthumb 18.402 11.2407
rfemur -18.5723 -8.03618 23.7179
rtibia 31.8618
rfoot -28.4948 6.62473
rtoes -9.16406
lfemur -48.1958 4.4421 -22.3809
ltibia 42.6243
lfoot -10.2387 6.79354
ltoes -4.72332
4
root -1.65753 16.3993 -44.3742 16.9182 -0.495177 -0.65832
lowerback -15.6297 0.988802 1.2309
upperback -4.13078 1.04603 1.23761
thorax 4.36788 0.523811 0.805375
lowerneck -3.22542 -1.09653 1.13245
upperneck 6.87773 -1.21927 -4.53479
head 2.72037 -0.723004 -1.7024
rclavicle -8.94531e-016 9.54166e-015
rhumerus -22.5786 3.63158 -86.8559
rradius 39.2357
rwrist -12.3274
rhand -15.0628 -35.2895
rfingers 7.12502
rthumb 11.1042 -64.9758
lclavicle -8.94531e-016 9.54166e-015
lhumerus -44.9367 4.89689 85.6061
lradius 18.2195
lwrist -19.6343
lhand -7.01369 -15.356
lfingers 7.12502
lthumb 18.8577 13.7499
rfemur -17.3268 -8.57366 23.6465
rtibia 30.909
rfoot -28.4982 7.54665
rtoes -9.42558
lfemur -48.194 4.28792 -21.9863
ltibia 39.2223
lfoot -9.71235 7.51275
ltoes -6.9377
5
root -1.64383 16.3932 -44.1611 17.0132 -0.879622 -0.774312
lowerback -16.2942 1.14374 1.47561
upperback -3.84714 1.19861 1.07516
thorax 5.03375 0.601837 0.543291
lowerneck -3.09732 -0.987738 1.04874
upperneck 6.59898 -1.10218 -4.17485
head 2.60649 -0.651562 -1.55958
rclavicle 2.18166e-014 1.43125e-014
rhumerus -21.8881 4.02076 -87.0419
rradius 40.847
rwrist -12.2996
rhand -14.9525 -35.3134
rfingers 7.12502
rthumb 11.2106 -64.9939
lclavicle 2.18166e-014 1.43125e-014
lhumerus -45.44 6.06342 84.4625
lradius 17.5139
lwrist -21.9325
lhand -8.35391 -16.4017
lfingers 7.12502
lthumb 17.5683 12.8245
rfemur -16.1363 -8.94687 23.4707
rtibia 30.0243
rfoot -28.5217 8.49831
rtoes -9.07107
lfemur -48.1338 4.18135 -21.5992
ltibia 35.7544
lfoot -9.19119 7.97773
ltoes -6.32783
6
root -1.63157 16.3844 -43.9457 17.0167 -1.52941 -1.02587
lowerback -16.2046 1.30607 1.43603
upperback -3.83147 1.41024 1.24633
thorax 4.99723 0.704738 0.787595
lowerneck -3.25923 -0.8997 0.791262
upperneck 6.62434 -0.964436 -4.2295
head 2.64951 -0.593132 -1.53026
rclavicle -2.03133e-014 -1.23246e-014
rhumerus -21.2955 5.17907 -86.8657
rradius 42.0866
rwrist -12.5076
rhand -15.1657 -35.464
rfingers 7.12502
rthumb 11.005 -65.1555
lclavicle -2.03133e-014 -1.23246e-014
lhumerus -46.5172 8.13436 83.0836
lradius 16.7303
lwrist -25.3259
lhand -8.36476 -16.8434
lfingers 7.12502
lthumb 17.5578 12.3838
rfemur -14.8692 -8.71739 23.3493
rtibia 29.1403
rfoot -28.401 9.11567
rtoes -9.05753
lfemur -47.8614 4.26655 -21.0121
ltibia 32.2664
lfoot -8.83653 8.32365
ltoes -3.94563
7
root -1.62864 16.3591 -43.7501 17.1823 -1.68414 -1.26628
lowerback -15.883 1.31678 1.27815
upperback -4.07418 1.45128 1.44421
thorax 4.55766 0.723196 1.0812
lowerneck -3.16923 -0.876195 0.780645
upperneck 6.63214 -0.916031 -4.47361
head 2.63731 -0.576064 -1.60576
rclavicle -9.15652e-015 6.36111e-015
rhumerus -20.676 6.1161 -86.6432
rradius 43.0518
rwrist -12.9227
rhand -15.0957 -35.4862
rfingers 7.12502
rthumb 11.0725 -65.1742
lclavicle -9.15652e-015 6.36111e-015
lhumerus -49.7486 8.2668 82.7383
lradius 18.4957
lwrist -25.1508
lhand -7.54867 -16.3021
lfingers 7.12502
lthumb 18.3431 12.8531
rfemur -13.8036 -8.65159 23.4258
rtibia 28.2233
rfoot -28.1974 9.39085
rtoes -9.62523
lfemur -47.9078 4.03891 -20.3322
ltibia 28.8571
lfoot -7.71335 8.57861
ltoes -6.63711
8
root -1.60784 16.3372 -43.5265 17.1313 -2.11433 -1.50158
lowerback -16.8677 1.51625 1.59497
upperback -3.48757 1.62694 1.37875
thorax 5.72055 0.812602 0.907764
lowerneck -3.16993 -0.809994 0.968241
upperneck 6.12597 -0.850495 -4.55854
head 2.47061 -0.535754 -1.65706
rclavicle 7.0817e-016 3.97569e-015
rhumerus -19.0023 6.65845 -86.5196
rradius 43.8043
rwrist -13.4209
rhand -15.0743 -35.8678
rfingers 7.12502
rthumb 11.0931 -65.5546
lclavicle 7.0817e-016 3.97569e-015
lhumerus -47.8952 11.3789 80.4043
lradius 15.665
lwrist -28.5749
lhand -7.21073 -16.1529
lfingers 7.12502
lthumb 18.6681 12.9713
rfemur -12.4035 -9.08643 23.2537
rtibia 27.2307
rfoot -28.1261 10.4634
rtoes -9.93784
lfemur -47.5699 3.96375 -19.7077
ltibia 25.6177
lfoot -6.73555 8.97099
ltoes -10.2744
9
root -1.58402 16.3296 -43.306 17.1022 -2.45265 -1.6204
lowerback -17.099 1.66761 1.78039
upperback -3.39269 1.78854 1.31771
thorax 5.9539 0.894801 0.782178
lowerneck -3.11176 -0.757225 1.03095
upperneck 6.13078 -0.781703 -4.5827
head 2.46376 -0.500152 -1.67342
rclavicle 3.75082e-014 1.94809e-014
rhumerus -18.2151 7.20021 -86.394
rradius 44.6513
rwrist -13.8317
rhand -15.419 -36.7724
rfingers 7.12502
rthumb 10.7606 -66.4768
lclavicle 3.75082e-014 1.94809e-014
lhumerus -50.8394 10.7206 80.3362
lradius 17.3454
lwrist -27.5535
lhand -7.49971 -15.9691
lfingers 7.12502
lthumb 18.3902 13.1816
rfemur -11.0735 -9.40802 22.9671
rtibia 26.2246
rfoot -27.899 11.3378
rtoes -10.4425
lfemur -47.2175 3.8825 -19.2923
ltibia 22.5638
lfoot -7.41345 9.08754
ltoes -6.58049
